<?xml version="1.0" standalone="no"?>
<!DOCTYPE svg PUBLIC "-//W3C//DTD SVG 1.1//EN" 
  "http://www.w3.org/Graphics/SVG/1.1/DTD/svg11.dtd">
<svg width="15cm" height="15cm" viewBox="0 0 1500 1500"
  xmlns="http://www.w3.org/2000/svg" version="1.1">
  <title>Example title</title>
  <desc>Example description</desc>
  <rect x="1" y="1" width="1498" height="1489" fill="none" stroke="blue" stroke-width="1" />
  <rect x="400" y="100" width="400" height="200" rx="50" fill="yellow" stroke="navy" stroke-width="50" />
  <g transform="translate(700 210) rotate(-30)">
    <rect x="0" y="0" width="400" height="200" rx="50" fill="none" stroke="purple" stroke-width="30" />
  </g>
  <circle cx="600" cy="600" r="100" fill="red" stroke="blue" stroke-width="10" />
  <ellipse cx="900" cy="600" rx="250" ry="100" fill="none" stroke="blue" stroke-width="20"  />
  <g stroke="green" >
    <line x1="100" y1="300" x2="300" y2="100" stroke-width="5" />
  </g>
  <g transform="translate(0,800)">
    <polyline fill="none" stroke="blue" stroke-width="10" points="50,375
      150,375 150,325 250,325 250,375
      350,375 350,250 450,250 450,375
      550,375 550,175 650,175 650,375
      750,375 750,100 850,100 850,375
      950,375 950,25 1050,25 1050,375
      1150,375" />
  </g>
  <polygon fill="red" stroke="lime" stroke-width="10" points="350,75 379,161 469,161 397,215
    423,301 350,250 277,301 303,215 231,161 321,161" />
  <g transform="translate(600,1000) scale(-2) rotate(90)">
    <path fill="none" stroke="red" stroke-width="10" d="M0,400 C50,450 150,450 200,400 C250,350 250,250 200,200 L0,0 L-200,200
      C-250,250 -250,350 -200,400 C-150,450 -50,450 0,400 z" />
  </g>
  <g transform="matrix(1 -0.1 1 1 500 500)">
    <circle cx="0" cy="0" r="100" fill="lime" stroke="green" stroke-width="10" />
  </g>
  <g transform="matrix(2 -0.6 2.8 4 500 1300)">
    <text x="1" y="1" font-family="Verdana" font-size="55" fill="#9966cc" stroke="#cc6699" stroke-width="1">test?</text>
  </g>
</svg>
